<svg width="24" height="24" viewBox="0 0 24 24" fill="none" xmlns="http://www.w3.org/2000/svg">
<path d="M24 12C24 18.6274 18.6274 24 12 24C5.37258 24 0 18.6274 0 12C0 5.37258 5.37258 0 12 0C18.6274 0 24 5.37258 24 12Z" fill="#465576"/>
<path d="M12 4.28571C12.9093 4.28571 13.7814 4.64694 14.4244 5.28992C15.0673 5.9329 15.4286 6.80497 15.4286 7.71429C15.4286 8.6236 15.0673 9.49567 14.4244 10.1387C13.7814 10.7816 12.9093 11.1429 12 11.1429C11.0907 11.1429 10.2186 10.7816 9.57563 10.1387C8.93265 9.49567 8.57143 8.6236 8.57143 7.71429C8.57143 6.80497 8.93265 5.9329 9.57563 5.28992C10.2186 4.64694 11.0907 4.28571 12 4.28571ZM12 12.8571C15.7886 12.8571 18.8571 14.3914 18.8571 16.2857V18H5.14286V16.2857C5.14286 14.3914 8.21143 12.8571 12 12.8571Z" fill="#D3E1FF"/>
</svg>
