<svg width="27" height="19" viewBox="0 0 27 19" fill="none" xmlns="http://www.w3.org/2000/svg">
<path d="M1.5 2.5H25.5M1.5 10.1774L25.5 10.1774M1.5 16.5H25.5" stroke="#D3E1FF" stroke-width="1.5" stroke-linecap="round"/>
<path d="M10.15 2.5C10.15 3.41127 9.41127 4.15 8.5 4.15C7.58873 4.15 6.85 3.41127 6.85 2.5C6.85 1.58873 7.58873 0.85 8.5 0.85C9.41127 0.85 10.15 1.58873 10.15 2.5ZM23.15 10.5C23.15 11.4113 22.4113 12.15 21.5 12.15C20.5887 12.15 19.85 11.4113 19.85 10.5C19.85 9.58873 20.5887 8.85 21.5 8.85C22.4113 8.85 23.15 9.58873 23.15 10.5ZM16.15 16.5C16.15 17.4113 15.4113 18.15 14.5 18.15C13.5887 18.15 12.85 17.4113 12.85 16.5C12.85 15.5887 13.5887 14.85 14.5 14.85C15.4113 14.85 16.15 15.5887 16.15 16.5Z" fill="#D3E1FF" stroke="black" stroke-width="0.7"/>
</svg>
