<svg width="82" height="25" viewBox="0 0 82 25" fill="none" xmlns="http://www.w3.org/2000/svg">
<path d="M0.0234375 0.727295H6.09162L12.5007 16.3637H12.7734L19.1825 0.727295H25.2507V24H20.478V8.85229H20.2848L14.2621 23.8864H11.0121L4.98935 8.79548H4.79617V24H0.0234375V0.727295Z" fill="white"/>
<path d="M76.6484 7.42042C76.5575 6.50375 76.1674 5.79163 75.478 5.28406C74.7886 4.77648 73.853 4.52269 72.6712 4.52269C71.8681 4.52269 71.1901 4.63633 70.6371 4.8636C70.084 5.0833 69.6598 5.39012 69.3643 5.78406C69.0765 6.178 68.9325 6.62497 68.9325 7.12497C68.9174 7.54163 69.0045 7.90527 69.1939 8.21588C69.3909 8.52648 69.6598 8.79542 70.0007 9.02269C70.3416 9.24239 70.7356 9.43557 71.1825 9.60224C71.6295 9.76133 72.1068 9.89769 72.6143 10.0113L74.7053 10.5113C75.7204 10.7386 76.6522 11.0416 77.5007 11.4204C78.3492 11.7992 79.084 12.2651 79.7053 12.8181C80.3265 13.3712 80.8075 14.0227 81.1484 14.7727C81.4969 15.5227 81.675 16.3825 81.6825 17.3522C81.675 18.7765 81.3113 20.0113 80.5916 21.0568C79.8795 22.0947 78.8492 22.9015 77.5007 23.4772C76.1598 24.0454 74.5424 24.3295 72.6484 24.3295C70.7697 24.3295 69.1333 24.0416 67.7393 23.4659C66.353 22.8901 65.2696 22.0378 64.4893 20.9091C63.7166 19.7727 63.3113 18.3674 63.2734 16.6931H68.0348C68.0878 17.4735 68.3113 18.125 68.7053 18.6477C69.1068 19.1628 69.6409 19.553 70.3075 19.8181C70.9818 20.0757 71.7431 20.2045 72.5916 20.2045C73.425 20.2045 74.1484 20.0833 74.7621 19.8409C75.3833 19.5985 75.8643 19.2613 76.2053 18.8295C76.5462 18.3977 76.7166 17.9015 76.7166 17.3409C76.7166 16.8182 76.5613 16.3788 76.2507 16.0227C75.9477 15.6666 75.5007 15.3636 74.9098 15.1136C74.3265 14.8636 73.6106 14.6363 72.7621 14.4318L70.228 13.7954C68.2659 13.3181 66.7166 12.5719 65.5803 11.5568C64.4439 10.5416 63.8795 9.17421 63.8871 7.45451C63.8795 6.04542 64.2545 4.81436 65.0121 3.76133C65.7772 2.7083 66.8265 1.88633 68.1598 1.29542C69.4931 0.704512 71.0083 0.409058 72.7053 0.409058C74.4325 0.409058 75.9401 0.704512 77.228 1.29542C78.5234 1.88633 79.531 2.7083 80.2507 3.76133C80.9704 4.81436 81.3416 6.03406 81.3643 7.42042H76.6484Z" fill="white"/>
<path d="M37 22L37 2L45.2056 6.63415L53.6113 11.3814C54.1296 11.674 54.1296 12.326 53.6113 12.6186L45.2056 17.3659L37 22Z" fill="white"/>
<path d="M37 2L37.7376 0.693898C37.2732 0.431619 36.7045 0.43567 36.2438 0.704538C35.7832 0.973405 35.5 1.46665 35.5 2L37 2ZM37 22L35.5 22C35.5 22.5334 35.7832 23.0266 36.2438 23.2955C36.7045 23.5643 37.2732 23.5684 37.7376 23.3061L37 22ZM53.6113 12.6186L54.3489 13.9247L54.3489 13.9247L53.6113 12.6186ZM53.6113 11.3814L54.3489 10.0753L54.3489 10.0753L53.6113 11.3814ZM35.5 2L35.5 22L38.5 22L38.5 2L35.5 2ZM52.8737 11.3125L44.4679 16.0598L45.9432 18.672L54.3489 13.9247L52.8737 11.3125ZM44.4679 16.0598L36.2624 20.6939L37.7376 23.3061L45.9432 18.672L44.4679 16.0598ZM54.3489 10.0753L45.9432 5.32805L44.4679 7.94025L52.8737 12.6875L54.3489 10.0753ZM45.9432 5.32805L37.7376 0.693898L36.2624 3.3061L44.4679 7.94025L45.9432 5.32805ZM54.3489 13.9247C55.045 13.5316 55.5 12.8152 55.5 12C55.5 11.1848 55.045 10.4684 54.3489 10.0753L52.8737 12.6875C52.6959 12.587 52.5 12.3429 52.5 12C52.5 11.6571 52.6959 11.413 52.8737 11.3125L54.3489 13.9247ZM43.7056 6.44444V6.63415H46.7056V6.44444H43.7056ZM43.7056 6.63415L43.7056 17.3659L46.7056 17.3659L46.7056 6.63415L43.7056 6.63415ZM43.7056 17.3659V17.5556H46.7056V17.3659H43.7056Z" fill="#437F97"/>
</svg>
