<svg width="19" height="17" viewBox="0 0 19 17" fill="none" xmlns="http://www.w3.org/2000/svg">
<path fill-rule="evenodd" clip-rule="evenodd" d="M8.11402 2.79061C6.63081 1.28157 4.22604 1.28157 2.74283 2.79061C1.25962 4.29966 1.25962 6.74631 2.74284 8.25536L3.37846 8.90206C3.38885 8.91263 3.39893 8.92346 3.4087 8.93453L9.32609 14.955L15.2432 8.93479C15.253 8.92367 15.2632 8.91275 15.2737 8.90206L15.9093 8.25536C17.3926 6.74631 17.3926 4.29966 15.9093 2.79061C14.4261 1.28157 12.0214 1.28157 10.5382 2.79061L9.90253 3.43731C9.58417 3.76122 9.068 3.76122 8.74964 3.43731L8.11402 2.79061ZM16.4579 10.0432C16.4481 10.0543 16.4379 10.0652 16.4274 10.0759L9.90337 16.7136C9.75044 16.8692 9.54301 16.9566 9.32674 16.9565H9.32544C9.10916 16.9566 8.90174 16.8692 8.74881 16.7136L2.22474 10.0759C2.21422 10.0652 2.20406 10.0543 2.19424 10.0431L1.58995 9.42833C-0.529981 7.27147 -0.529985 3.77451 1.58995 1.61765C3.70988 -0.539215 7.14697 -0.539215 9.2669 1.61765L9.32609 1.67786L9.38527 1.61765C11.5052 -0.539215 14.9423 -0.539215 17.0622 1.61765C19.1822 3.77451 19.1822 7.27147 17.0622 9.42833L16.4579 10.0432Z" fill="#A03838"/>
<path d="M5 1L9.5 2.5L12 1L16 1.5L18 5L17 8.5L9 16L3.5 10.5L1.5 9L1 6L1.5 2.5L5 1Z" fill="#A03838"/>
</svg>
