<svg width="35" height="33" viewBox="0 0 35 33" fill="none" xmlns="http://www.w3.org/2000/svg">
<path fill-rule="evenodd" clip-rule="evenodd" d="M8.75002 9.625C8.75002 8.86561 9.40294 8.25 10.2084 8.25H14.5834C15.3888 8.25 16.0417 8.86561 16.0417 9.625V22C16.0417 22.7594 15.3888 23.375 14.5834 23.375H10.2084C9.40294 23.375 8.75002 22.7594 8.75002 22V9.625ZM11.6667 11V20.625H13.125V11H11.6667Z" fill="white"/>
<path fill-rule="evenodd" clip-rule="evenodd" d="M20.4167 8.25C19.6113 8.25 18.9584 8.86561 18.9584 9.625V16.5C18.9584 17.2594 19.6113 17.875 20.4167 17.875H24.7917C25.5971 17.875 26.25 17.2594 26.25 16.5V9.625C26.25 8.86561 25.5971 8.25 24.7917 8.25H20.4167ZM21.875 15.125V11H23.3334V15.125H21.875Z" fill="white"/>
<path fill-rule="evenodd" clip-rule="evenodd" d="M2.91669 6.875C2.91669 4.59683 4.87544 2.75 7.29169 2.75H27.7084C30.1246 2.75 32.0834 4.59683 32.0834 6.875V26.125C32.0834 28.4032 30.1246 30.25 27.7084 30.25H7.29169C4.87544 30.25 2.91669 28.4032 2.91669 26.125V6.875ZM7.29169 5.5C6.48627 5.5 5.83335 6.11561 5.83335 6.875V26.125C5.83335 26.8844 6.48627 27.5 7.29169 27.5H27.7084C28.5138 27.5 29.1667 26.8844 29.1667 26.125V6.875C29.1667 6.11561 28.5138 5.5 27.7084 5.5H7.29169Z" fill="white"/>
</svg>
