<svg width="22" height="22" viewBox="0 0 22 22" fill="none" xmlns="http://www.w3.org/2000/svg">
<path d="M7.41671 6.29179L9.79539 1.02011C10.1496 0.23516 11.2642 0.235159 11.6184 1.02011L13.9943 6.2857C14.1344 6.5961 14.4228 6.8139 14.7597 6.86367L20.7846 7.75384C21.6401 7.88024 21.9427 8.95945 21.2776 9.51218L16.4626 13.5139C16.165 13.7612 16.0368 14.1579 16.1334 14.5326L17.7097 20.6459C17.9327 21.5109 16.996 22.212 16.2289 21.7543L11.2193 18.7652C10.9037 18.5769 10.5101 18.5769 10.1945 18.7652L5.18485 21.7543C4.41774 22.212 3.48109 21.5109 3.70412 20.6459L5.28781 14.5038C5.38054 14.1441 5.26631 13.7627 4.99115 13.5133L0.546126 9.48325C-0.0759702 8.91923 0.232064 7.88599 1.06145 7.7547L6.66156 6.8682C6.9943 6.81552 7.27815 6.59886 7.41671 6.29179Z" fill="#F3D362"/>
</svg>
