<svg width="33" height="33" viewBox="0 0 33 33" fill="none" xmlns="http://www.w3.org/2000/svg">
<path fill-rule="evenodd" clip-rule="evenodd" d="M15.125 1.375C14.5816 1.375 14.0892 1.69501 13.8685 2.19156L8.73142 13.75H5.5C4.40598 13.75 3.35677 14.1846 2.58318 14.9582C1.8096 15.7318 1.375 16.781 1.375 17.875V27.5C1.375 28.594 1.8096 29.6432 2.58318 30.4168C3.35677 31.1904 4.40598 31.625 5.5 31.625H25.1279C26.1197 31.6342 27.0817 31.2857 27.8376 30.6432C28.5954 29.9991 29.0949 29.1029 29.2443 28.1197L31.1419 15.7438C31.2317 15.1526 31.1918 14.549 31.0251 13.9747C30.8583 13.4005 30.5688 12.8693 30.1764 12.4181C29.784 11.9669 29.2982 11.6063 28.7527 11.3615C28.2097 11.1178 27.6205 10.9945 27.0255 11H20.625V6.875C20.625 5.41631 20.0455 4.01736 19.0141 2.98591C17.9826 1.95446 16.5837 1.375 15.125 1.375ZM15.9608 4.25507L11 15.4168V28.875H25.1505C25.4821 28.8787 25.8039 28.7626 26.0566 28.5478C26.3093 28.3331 26.4758 28.0342 26.5255 27.7063L28.4231 15.3312C28.4529 15.1343 28.4396 14.9327 28.3841 14.7415C28.3285 14.55 28.232 14.373 28.1012 14.2226C27.9704 14.0722 27.8085 13.952 27.6267 13.8704C27.4448 13.7888 27.2474 13.7477 27.0481 13.7499L27.0325 13.7501L19.25 13.75C18.4906 13.75 17.875 13.1344 17.875 12.375V6.875C17.875 6.14565 17.5853 5.44618 17.0695 4.93046C16.7563 4.61717 16.3752 4.38728 15.9608 4.25507ZM8.25 16.5V28.875H5.5C5.13533 28.875 4.78559 28.7301 4.52773 28.4723C4.26987 28.2144 4.125 27.8647 4.125 27.5V17.875C4.125 17.5103 4.26987 17.1606 4.52773 16.9027C4.78559 16.6449 5.13533 16.5 5.5 16.5H8.25Z" fill="white"/>
</svg>
