<svg width="36" height="19" viewBox="0 0 36 19" fill="none" xmlns="http://www.w3.org/2000/svg">
<path d="M25.5 0.458374C24.6716 0.458374 24 1.03667 24 1.75004C24 2.46341 24.6716 3.04171 25.5 3.04171H30.8787L20.25 12.1942L13.8107 6.64919C13.2249 6.14477 12.2751 6.14477 11.6893 6.64919L0.43934 16.3367C-0.146447 16.8411 -0.146447 17.659 0.43934 18.1634C1.02513 18.6678 1.97487 18.6678 2.56066 18.1634L12.75 9.38923L19.1893 14.9342C19.7751 15.4386 20.7249 15.4386 21.3107 14.9342L33 4.8684V9.50004C33 10.2134 33.6716 10.7917 34.5 10.7917C35.3284 10.7917 36 10.2134 36 9.50004V1.75004C36 1.03667 35.3284 0.458374 34.5 0.458374H25.5Z" fill="white"/>
</svg>
